<svg aria-hidden="true" style="position: absolute; width: 0; height: 0; overflow: hidden;" version="1.1" xmlns="http://www.w3.org/2000/svg" xmlns:xlink="http://www.w3.org/1999/xlink">
<defs>
<symbol id="icon-cancel-circle" viewBox="0 0 64 64">
<title>cancel-circle</title>
<path d="M32 0c-17.673 0-32 14.327-32 32s14.327 32 32 32 32-14.327 32-32-14.327-32-32-32zM32 58c-14.359 0-26-11.641-26-26s11.641-26 26-26 26 11.641 26 26-11.641 26-26 26z"></path>
<path d="M42 16l-10 10-10-10-6 6 10 10-10 10 6 6 10-10 10 10 6-6-10-10 10-10z"></path>
</symbol>
<symbol id="icon-cross" viewBox="0 0 64 64">
<title>cross</title>
<path d="M63.416 51.416c-0-0-0.001-0.001-0.001-0.001l-19.415-19.416 19.415-19.416c0-0 0.001-0 0.001-0.001 0.209-0.209 0.36-0.453 0.457-0.713 0.265-0.711 0.114-1.543-0.458-2.114l-9.172-9.172c-0.572-0.572-1.403-0.723-2.114-0.458-0.26 0.097-0.504 0.248-0.714 0.457 0 0-0 0-0.001 0.001l-19.416 19.416-19.416-19.416c-0-0-0-0-0.001-0.001-0.209-0.209-0.453-0.36-0.713-0.457-0.711-0.266-1.543-0.114-2.114 0.457l-9.172 9.172c-0.572 0.572-0.723 1.403-0.458 2.114 0.097 0.26 0.248 0.505 0.457 0.713 0 0 0 0 0.001 0.001l19.416 19.416-19.416 19.416c-0 0-0 0-0 0.001-0.209 0.209-0.36 0.453-0.457 0.713-0.266 0.711-0.114 1.543 0.458 2.114l9.172 9.172c0.572 0.572 1.403 0.723 2.114 0.458 0.26-0.097 0.504-0.248 0.713-0.457 0-0 0-0 0.001-0.001l19.416-19.416 19.416 19.416c0 0 0.001 0 0.001 0.001 0.209 0.209 0.453 0.36 0.713 0.457 0.711 0.265 1.543 0.114 2.114-0.458l9.172-9.172c0.572-0.572 0.723-1.403 0.458-2.114-0.097-0.26-0.248-0.504-0.457-0.713z"></path>
</symbol>
</defs>
</svg>
